<?xml version="1.0" encoding="UTF-8"?>
<!DOCTYPE svg PUBLIC "-//W3C//DTD SVG 1.1//EN" "http://www.w3.org/Graphics/SVG/1.1/DTD/svg11.dtd">
<svg xmlns="http://www.w3.org/2000/svg" version="1.1" width="398px" height="398px" style="shape-rendering:geometricPrecision; text-rendering:geometricPrecision; image-rendering:optimizeQuality; fill-rule:evenodd; clip-rule:evenodd" xmlns:xlink="http://www.w3.org/1999/xlink">
<g><path style="opacity:1" fill="#3180de" d="M 251.5,93.5 C 254.129,97.5189 256.295,101.852 258,106.5C 258.833,111.5 259.667,116.5 260.5,121.5C 262.071,120.691 263.738,120.357 265.5,120.5C 275.904,125.719 285.07,132.719 293,141.5C 294.777,144.059 296.277,146.726 297.5,149.5C 289.354,139.52 279.354,132.02 267.5,127C 263.638,126.087 259.972,126.42 256.5,128C 257.5,128.333 258.5,128.667 259.5,129C 255.059,131.772 250.392,134.106 245.5,136C 246.252,136.671 246.586,137.504 246.5,138.5C 245.662,138.842 245.328,139.508 245.5,140.5C 243.5,139.5 241.5,138.5 239.5,137.5C 237.206,135.347 234.54,133.68 231.5,132.5C 224.836,129.634 217.836,128.301 210.5,128.5C 212.58,126.427 214.246,124.093 215.5,121.5C 214.759,115.419 211.426,111.419 205.5,109.5C 208.036,99.1222 214.369,91.9555 224.5,88C 230.5,87.3333 236.5,87.3333 242.5,88C 246.181,88.8722 249.181,90.7055 251.5,93.5 Z"/></g>
<g><path style="opacity:1" fill="#2559bb" d="M 251.5,93.5 C 255.779,95.6843 258.946,99.0176 261,103.5C 263.282,108.963 264.782,114.629 265.5,120.5C 263.738,120.357 262.071,120.691 260.5,121.5C 259.667,116.5 258.833,111.5 258,106.5C 256.295,101.852 254.129,97.5189 251.5,93.5 Z"/></g>
<g><path style="opacity:0.008" fill="#463941" d="M 264.5,99.5 C 265.833,100.167 265.833,100.167 264.5,99.5 Z"/></g>
<g><path style="opacity:0.016" fill="#49373d" d="M 199.5,109.5 C 196.999,109.489 196.832,108.822 199,107.5C 199.464,108.094 199.631,108.761 199.5,109.5 Z"/></g>
<g><path style="opacity:0.008" fill="#483840" d="M 269.5,111.5 C 269.167,111.5 268.833,111.5 268.5,111.5C 268.833,106.167 269.167,106.167 269.5,111.5 Z"/></g>
<g><path style="opacity:0.008" fill="#483840" d="M 269.5,111.5 C 270.598,112.601 270.765,113.934 270,115.5C 269.51,114.207 269.343,112.873 269.5,111.5 Z"/></g>
<g><path style="opacity:1" fill="#35373e" d="M 228.5,100.5 C 235.818,96.6743 241.651,98.341 246,105.5C 247.874,112.011 246.041,117.178 240.5,121C 233.786,123.973 228.286,122.473 224,116.5C 221.79,111.643 222.123,106.976 225,102.5C 225.816,101.177 226.983,100.511 228.5,100.5 Z"/></g>
<g><path style="opacity:1" fill="#ececec" d="M 228.5,100.5 C 237.665,97.5987 243.332,100.765 245.5,110C 243.977,118.52 238.977,121.853 230.5,120C 224.891,116.723 223.058,111.89 225,105.5C 225.997,103.677 227.164,102.01 228.5,100.5 Z"/></g>
<g><path style="opacity:1" fill="#111010" d="M 232.5,104.5 C 239.687,102.857 242.52,105.857 241,113.5C 236.246,118.951 231.913,118.617 228,112.5C 227.202,110.741 227.369,109.074 228.5,107.5C 230.071,108.309 231.738,108.643 233.5,108.5C 233.768,106.901 233.434,105.568 232.5,104.5 Z"/></g>
<g><path style="opacity:0.016" fill="#4c383a" d="M 185.5,116.5 C 186.598,117.601 186.765,118.934 186,120.5C 185.51,119.207 185.343,117.873 185.5,116.5 Z"/></g>
<g><path style="opacity:0.996" fill="#853e08" d="M 199.5,109.5 C 199.833,109.5 200.167,109.5 200.5,109.5C 202.167,109.5 203.833,109.5 205.5,109.5C 211.426,111.419 214.759,115.419 215.5,121.5C 210.971,124.449 206.304,126.115 201.5,126.5C 201.167,126.5 200.833,126.5 200.5,126.5C 200.5,125.833 200.167,125.5 199.5,125.5C 197.784,125.371 196.117,125.038 194.5,124.5C 194.5,123.833 194.167,123.5 193.5,123.5C 193.167,123.5 192.833,123.5 192.5,123.5C 192.5,122.833 192.167,122.5 191.5,122.5C 191.167,122.5 190.833,122.5 190.5,122.5C 190.167,122.5 189.833,122.5 189.5,122.5C 186.914,119.994 186.914,117.494 189.5,115C 189.167,114.667 188.833,114.333 188.5,114C 192.363,113.197 196.03,111.697 199.5,109.5 Z"/></g>
<g><path style="opacity:1" fill="#db7101" d="M 212.5,117.5 C 213.791,118.542 213.791,119.708 212.5,121C 204.632,124.613 197.299,123.78 190.5,118.5C 198.019,118.825 205.352,118.492 212.5,117.5 Z"/></g>
<g><path style="opacity:1" fill="#fbbd24" d="M 212.5,117.5 C 205.352,118.492 198.019,118.825 190.5,118.5C 194.448,115.275 198.948,112.941 204,111.5C 207.625,112.394 210.458,114.394 212.5,117.5 Z"/></g>
<g><path style="opacity:0.004" fill="#46373f" d="M 189.5,122.5 C 189.833,122.5 190.167,122.5 190.5,122.5C 190.833,123.833 191.167,123.833 191.5,122.5C 192.167,122.5 192.5,122.833 192.5,123.5C 192.833,124.833 193.167,124.833 193.5,123.5C 194.167,123.5 194.5,123.833 194.5,124.5C 192.334,125.629 190.334,125.129 188.5,123C 188.728,122.601 189.062,122.435 189.5,122.5 Z"/></g>
<g><path style="opacity:1" fill="#245497" d="M 215.5,121.5 C 214.246,124.093 212.58,126.427 210.5,128.5C 208.833,129.167 207.167,129.833 205.5,130.5C 204.167,130.833 202.833,131.167 201.5,131.5C 201.5,129.833 201.5,128.167 201.5,126.5C 206.304,126.115 210.971,124.449 215.5,121.5 Z"/></g>
<g><path style="opacity:1" fill="#fa9d65" d="M 210.5,128.5 C 217.836,128.301 224.836,129.634 231.5,132.5C 222.66,135.779 213.994,139.446 205.5,143.5C 205.5,139.167 205.5,134.833 205.5,130.5C 207.167,129.833 208.833,129.167 210.5,128.5 Z"/></g>
<g><path style="opacity:0.016" fill="#4a383c" d="M 199.5,125.5 C 200.167,125.5 200.5,125.833 200.5,126.5C 200.5,133.5 200.5,140.5 200.5,147.5C 199.509,141.021 199.176,134.354 199.5,127.5C 198.448,127.649 197.448,127.483 196.5,127C 197.737,126.768 198.737,126.268 199.5,125.5 Z"/></g>
<g><path style="opacity:1" fill="#fdb37d" d="M 231.5,132.5 C 234.54,133.68 237.206,135.347 239.5,137.5C 239.53,138.497 239.03,139.164 238,139.5C 229.445,142.528 220.945,145.694 212.5,149C 210.667,149.5 209.5,150.667 209,152.5C 208.722,151.584 208.222,150.918 207.5,150.5C 206.593,148.343 205.927,146.01 205.5,143.5C 213.994,139.446 222.66,135.779 231.5,132.5 Z"/></g>
<g><path style="opacity:1" fill="#2e70d3" d="M 297.5,149.5 C 299.607,152.057 300.941,155.057 301.5,158.5C 294.65,161.175 290.484,158.841 289,151.5C 288.991,155.178 287.157,157.345 283.5,158C 277.643,159.256 272.309,158.089 267.5,154.5C 267.167,154.667 266.833,154.833 266.5,155C 271.088,158.126 276.088,160.459 281.5,162C 281.833,162.333 282.167,162.667 282.5,163C 276.293,163.426 270.293,162.426 264.5,160C 260.78,158.14 257.114,156.307 253.5,154.5C 250.087,149.67 247.753,144.337 246.5,138.5C 246.586,137.504 246.252,136.671 245.5,136C 250.392,134.106 255.059,131.772 259.5,129C 258.5,128.667 257.5,128.333 256.5,128C 259.972,126.42 263.638,126.087 267.5,127C 279.354,132.02 289.354,139.52 297.5,149.5 Z"/></g>
<g><path style="opacity:1" fill="#fdc692" d="M 239.5,137.5 C 241.5,138.5 243.5,139.5 245.5,140.5C 245.5,140.833 245.5,141.167 245.5,141.5C 244.637,143.76 242.97,145.26 240.5,146C 230.036,149.409 220.036,153.576 210.5,158.5C 208.345,156.383 207.345,153.716 207.5,150.5C 208.222,150.918 208.722,151.584 209,152.5C 209.5,150.667 210.667,149.5 212.5,149C 220.945,145.694 229.445,142.528 238,139.5C 239.03,139.164 239.53,138.497 239.5,137.5 Z"/></g>
<g><path style="opacity:0.008" fill="#48383f" d="M 200.5,147.5 C 200.833,147.5 201.167,147.5 201.5,147.5C 201.167,152.833 200.833,152.833 200.5,147.5 Z"/></g>
<g><path style="opacity:1" fill="#fcd6a4" d="M 245.5,141.5 C 246.566,143.701 247.233,146.035 247.5,148.5C 247.167,149.833 246.833,151.167 246.5,152.5C 235.368,156.417 224.701,160.417 214.5,164.5C 212.674,162.853 211.34,160.853 210.5,158.5C 220.036,153.576 230.036,149.409 240.5,146C 242.97,145.26 244.637,143.76 245.5,141.5 Z"/></g>
<g><path style="opacity:0.008" fill="#473840" d="M 202.5,155.5 C 201.427,154.749 201.26,153.749 202,152.5C 202.483,153.448 202.649,154.448 202.5,155.5 Z"/></g>
<g><path style="opacity:1" fill="#fee6b6" d="M 246.5,152.5 C 248.295,158.09 251.128,163.09 255,167.5C 255.829,173.016 253.329,175.849 247.5,176C 241.472,176.641 235.472,176.474 229.5,175.5C 223.248,173.541 218.248,169.874 214.5,164.5C 224.701,160.417 235.368,156.417 246.5,152.5 Z"/></g>
<g><path style="opacity:0.008" fill="#49383f" d="M 202.5,155.5 C 202.833,155.5 203.167,155.5 203.5,155.5C 203.167,158.167 202.833,158.167 202.5,155.5 Z"/></g>
<g><path style="opacity:0.008" fill="#453842" d="M 311.5,159.5 C 311.5,159.167 311.5,158.833 311.5,158.5C 314.262,159.38 316.929,160.546 319.5,162C 320.598,162.77 320.598,163.603 319.5,164.5C 318.833,164.5 318.5,164.167 318.5,163.5C 318.167,162.167 317.833,162.167 317.5,163.5C 316.833,163.5 316.5,163.167 316.5,162.5C 316.5,161.833 316.167,161.5 315.5,161.5C 315.167,161.5 314.833,161.5 314.5,161.5C 314.5,160.833 314.167,160.5 313.5,160.5C 313.167,160.5 312.833,160.5 312.5,160.5C 312.5,159.833 312.167,159.5 311.5,159.5 Z"/></g>
<g><path style="opacity:0.004" fill="#433742" d="M 206.5,161.5 C 206.631,162.239 206.464,162.906 206,163.5C 205.308,162.563 205.475,161.897 206.5,161.5 Z"/></g>
<g><path style="opacity:1" fill="#245cbd" d="M 290.5,173.5 C 291.167,172.5 291.833,171.5 292.5,170.5C 299.506,171.004 304.172,168.004 306.5,161.5C 316.664,167.081 326.664,172.914 336.5,179C 337.451,179.718 337.617,180.551 337,181.5C 334.237,183.97 331.07,184.804 327.5,184C 321.833,180.833 316.167,177.667 310.5,174.5C 309.304,174.846 309.304,175.346 310.5,176C 315.969,179.303 321.302,182.803 326.5,186.5C 323.072,189.719 319.072,190.885 314.5,190C 310.686,187.02 307.019,183.854 303.5,180.5C 303.167,180.667 302.833,180.833 302.5,181C 305.683,184.015 308.683,187.182 311.5,190.5C 309.926,191.631 308.259,191.798 306.5,191C 300.591,185.596 295.258,179.763 290.5,173.5 Z"/></g>
<g><path style="opacity:0.992" fill="#1c3364" d="M 264.5,100.5 C 265.605,104.352 266.938,108.018 268.5,111.5C 268.298,113.989 268.798,116.323 270,118.5C 270.333,117.833 270.667,117.167 271,116.5C 274.833,119 278.667,121.5 282.5,124C 282.381,125.281 282.881,126.448 284,127.5C 285.871,126.332 287.371,126.832 288.5,129C 288.167,129.333 287.833,129.667 287.5,130C 295.198,136.59 301.365,145.423 306,156.5C 306.333,155.833 306.667,155.167 307,154.5C 308.397,156.07 309.897,157.404 311.5,158.5C 310.167,158.833 310.167,159.167 311.5,159.5C 312.167,159.5 312.5,159.833 312.5,160.5C 312.833,160.5 313.167,160.5 313.5,160.5C 314.167,160.5 314.5,160.833 314.5,161.5C 314.833,161.5 315.167,161.5 315.5,161.5C 316.167,161.5 316.5,161.833 316.5,162.5C 316.5,163.167 316.833,163.5 317.5,163.5C 317.833,163.5 318.167,163.5 318.5,163.5C 318.5,164.167 318.833,164.5 319.5,164.5C 320.802,165.807 322.135,165.807 323.5,164.5C 325.002,165.083 326.335,165.916 327.5,167C 326.167,167.667 326.167,168.333 327.5,169C 328.549,169.492 329.549,169.326 330.5,168.5C 333.5,170.333 336.5,172.167 339.5,174C 340.397,176.454 341.063,179.287 341.5,182.5C 340.662,182.842 340.328,183.508 340.5,184.5C 339.167,184.833 339.167,185.167 340.5,185.5C 339.341,187.25 337.674,188.25 335.5,188.5C 334.833,187.167 334.167,187.167 333.5,188.5C 332.167,188.833 332.167,189.167 333.5,189.5C 329.722,191.892 325.722,194.059 321.5,196C 318.518,196.498 315.518,196.665 312.5,196.5C 310.735,195.539 308.735,195.205 306.5,195.5C 306.5,194.833 306.167,194.5 305.5,194.5C 305.167,194.5 304.833,194.5 304.5,194.5C 304.5,193.833 304.167,193.5 303.5,193.5C 300.203,190.704 297.036,187.704 294,184.5C 293.667,184.833 293.333,185.167 293,185.5C 291.667,184.167 290.333,182.833 289,181.5C 290.008,179.634 289.508,178.301 287.5,177.5C 287.5,176.833 287.167,176.5 286.5,176.5C 287.262,174.738 288.596,173.738 290.5,173.5C 295.258,179.763 300.591,185.596 306.5,191C 308.259,191.798 309.926,191.631 311.5,190.5C 308.683,187.182 305.683,184.015 302.5,181C 302.833,180.833 303.167,180.667 303.5,180.5C 307.019,183.854 310.686,187.02 314.5,190C 319.072,190.885 323.072,189.719 326.5,186.5C 321.302,182.803 315.969,179.303 310.5,176C 309.304,175.346 309.304,174.846 310.5,174.5C 316.167,177.667 321.833,180.833 327.5,184C 331.07,184.804 334.237,183.97 337,181.5C 337.617,180.551 337.451,179.718 336.5,179C 326.664,172.914 316.664,167.081 306.5,161.5C 304.172,168.004 299.506,171.004 292.5,170.5C 288.167,170.5 283.833,170.5 279.5,170.5C 264.297,169.579 253.63,162.246 247.5,148.5C 247.233,146.035 246.566,143.701 245.5,141.5C 245.5,141.167 245.5,140.833 245.5,140.5C 245.328,139.508 245.662,138.842 246.5,138.5C 247.753,144.337 250.087,149.67 253.5,154.5C 259.072,161.79 266.405,166.29 275.5,168C 284.01,169.114 292.344,168.448 300.5,166C 303.966,163.806 304.3,161.306 301.5,158.5C 300.941,155.057 299.607,152.057 297.5,149.5C 296.277,146.726 294.777,144.059 293,141.5C 285.07,132.719 275.904,125.719 265.5,120.5C 264.782,114.629 263.282,108.963 261,103.5C 258.946,99.0176 255.779,95.6843 251.5,93.5C 249.181,90.7055 246.181,88.8722 242.5,88C 236.5,87.3333 230.5,87.3333 224.5,88C 214.369,91.9555 208.036,99.1222 205.5,109.5C 203.833,109.5 202.167,109.5 200.5,109.5C 201.475,105.381 203.142,101.548 205.5,98C 204.549,97.2825 204.383,96.4491 205,95.5C 208.833,94.3333 211.333,91.8333 212.5,88C 213.966,87.3645 215.3,86.5312 216.5,85.5C 217.167,85.8333 217.833,86.1667 218.5,86.5C 227.054,82.16 235.888,81.4933 245,84.5C 247.663,83.549 250.163,84.049 252.5,86C 252.381,87.2812 252.881,88.4479 254,89.5C 255.871,88.3322 257.371,88.8322 258.5,91C 258.167,91.3333 257.833,91.6667 257.5,92C 258.552,93.1192 259.719,93.6192 261,93.5C 260.823,96.2491 261.99,98.5824 264.5,100.5 Z"/></g>
<g><path style="opacity:1" fill="#1e52af" d="M 301.5,158.5 C 304.3,161.306 303.966,163.806 300.5,166C 292.344,168.448 284.01,169.114 275.5,168C 266.405,166.29 259.072,161.79 253.5,154.5C 257.114,156.307 260.78,158.14 264.5,160C 270.293,162.426 276.293,163.426 282.5,163C 282.167,162.667 281.833,162.333 281.5,162C 276.088,160.459 271.088,158.126 266.5,155C 266.833,154.833 267.167,154.667 267.5,154.5C 272.309,158.089 277.643,159.256 283.5,158C 287.157,157.345 288.991,155.178 289,151.5C 290.484,158.841 294.65,161.175 301.5,158.5 Z"/></g>
<g><path style="opacity:0.962" fill="#070503" d="M 208.5,164.5 C 208.461,166.224 208.794,166.557 209.5,165.5C 216.669,173.926 225.669,179.593 236.5,182.5C 236.068,183.71 235.401,184.71 234.5,185.5C 231.06,183.945 227.727,182.112 224.5,180C 223.5,179.333 222.5,179.333 221.5,180C 225.448,183.401 227.615,187.567 228,192.5C 214.385,185.182 199.885,181.348 184.5,181C 186.303,181.637 187.636,182.803 188.5,184.5C 166.286,186.719 145.619,193.552 126.5,205C 122.379,204.908 118.379,204.075 114.5,202.5C 114.833,204.5 115.167,206.5 115.5,208.5C 110.686,209.493 106.019,210.993 101.5,213C 105.668,213.375 109.668,214.375 113.5,216C 105.333,221.667 98.333,228.501 92.5,236.5C 88.7828,240.244 85.7828,244.577 83.5,249.5C 83.6667,249.833 83.8333,250.167 84,250.5C 86.1277,248.192 88.6277,246.526 91.5,245.5C 89.2664,251.366 86.9331,257.2 84.5,263C 85.4368,263.692 86.1034,263.525 86.5,262.5C 94.8971,259.063 96.0637,260.397 90,266.5C 86.8023,271.222 84.4689,276.222 83,281.5C 86.1805,277.945 90.0138,275.778 94.5,275C 90.7742,280.342 88.1075,286.175 86.5,292.5C 84.9076,296.932 83.7409,301.598 83,306.5C 82.3333,315.5 82.3333,324.5 83,333.5C 83.414,333.957 83.914,334.291 84.5,334.5C 85.5284,332.56 85.5284,330.56 84.5,328.5C 84.4823,326.627 84.9823,326.294 86,327.5C 88.3747,332.205 89.5414,337.205 89.5,342.5C 91.8333,342.5 94.1667,342.5 96.5,342.5C 96.3338,336.158 96.5005,329.825 97,323.5C 98.749,317.424 100.582,311.424 102.5,305.5C 102.833,303.5 103.167,301.5 103.5,299.5C 100.351,299.789 97.3508,299.289 94.5,298C 99.8333,295 105.167,292 110.5,289C 115.083,285.088 118.917,280.588 122,275.5C 122.52,277.289 122.187,278.956 121,280.5C 118.642,284.558 115.808,288.225 112.5,291.5C 110.068,292.75 107.734,294.25 105.5,296C 121.513,296.328 133.846,289.828 142.5,276.5C 140.992,274.493 139.158,272.826 137,271.5C 136.312,270.668 136.479,270.002 137.5,269.5C 154.788,280.183 173.121,282.35 192.5,276C 184.684,272.51 177.684,267.843 171.5,262C 170.552,261.517 169.552,261.351 168.5,261.5C 167.708,260.033 167.708,258.7 168.5,257.5C 171.934,260.281 175.601,262.614 179.5,264.5C 190.158,273.419 202.492,277.253 216.5,276C 221.651,275.09 226.318,273.09 230.5,270C 228.004,268.92 225.67,267.586 223.5,266C 222.289,265.107 222.289,264.274 223.5,263.5C 233.112,268.497 242.779,268.664 252.5,264C 253.667,262.833 254.833,261.667 256,260.5C 257.047,257.141 258.547,254.141 260.5,251.5C 259.61,261.944 255.943,271.277 249.5,279.5C 248.115,280.302 248.282,280.969 250,281.5C 263.349,277.159 272.682,268.492 278,255.5C 278.473,258.951 277.973,262.285 276.5,265.5C 279.517,268.906 282.517,272.24 285.5,275.5C 290.028,281.889 293.528,288.889 296,296.5C 294.963,301.736 294.63,307.07 295,312.5C 296.47,315.744 297.637,319.077 298.5,322.5C 299.38,329.123 299.713,335.789 299.5,342.5C 301.5,342.5 303.5,342.5 305.5,342.5C 304.875,336.544 306.375,331.211 310,326.5C 310.167,327.167 310.333,327.833 310.5,328.5C 309.472,330.56 309.472,332.56 310.5,334.5C 312.618,317.569 311.451,300.902 307,284.5C 306.617,283.944 306.117,283.611 305.5,283.5C 304.457,278.771 302.457,274.437 299.5,270.5C 303.841,270.434 307.341,272.434 310,276.5C 308.154,268.793 305.154,261.459 301,254.5C 298.78,251.979 296.28,249.812 293.5,248C 298.632,248.648 303.132,250.815 307,254.5C 305.763,251.224 303.597,248.391 300.5,246C 295.833,243 291.167,240 286.5,237C 288.534,235.994 290.7,235.494 293,235.5C 295.857,235.968 298.691,236.134 301.5,236C 293.766,227.308 284.766,220.308 274.5,215C 277.898,213.084 281.565,212.084 285.5,212C 283.609,210.558 281.609,209.391 279.5,208.5C 275.772,205.36 271.438,203.36 266.5,202.5C 266.611,201.883 266.944,201.383 267.5,201C 271.045,200.283 274.545,200.45 278,201.5C 279.893,200.804 281.726,199.97 283.5,199C 275.649,196.457 267.649,195.957 259.5,197.5C 261.16,192.844 262.826,188.177 264.5,183.5C 267.246,181.874 270.246,181.207 273.5,181.5C 273.5,182.167 273.833,182.5 274.5,182.5C 271.675,184.761 269.008,187.261 266.5,190C 278.004,189.333 288.504,192.167 298,198.5C 298.617,199.449 298.451,200.282 297.5,201C 294.421,202.411 291.421,203.911 288.5,205.5C 293.103,209.11 296.103,213.776 297.5,219.5C 296.448,219.351 295.448,219.517 294.5,220C 303.641,226.174 309.974,234.341 313.5,244.5C 312.127,244.343 310.793,244.51 309.5,245C 317.598,253.672 321.264,263.838 320.5,275.5C 319.833,275.167 319.167,274.833 318.5,274.5C 317.993,279.479 316.993,284.313 315.5,289C 318.45,303.949 319.117,318.949 317.5,334C 322.731,336.232 326.231,340.065 328,345.5C 331.47,364.174 328.304,381.508 318.5,397.5C 315.5,397.5 312.5,397.5 309.5,397.5C 320.954,383.213 325.12,366.88 322,348.5C 320.323,343.121 316.823,340.621 311.5,341C 310.328,341.419 309.328,342.085 308.5,343C 309.406,344.699 309.739,346.533 309.5,348.5C 308.046,351.978 307.046,355.645 306.5,359.5C 303.052,365.61 301.552,372.277 302,379.5C 300.762,384.862 299.595,390.195 298.5,395.5C 298.5,396.167 298.5,396.833 298.5,397.5C 296.167,397.5 293.833,397.5 291.5,397.5C 293.622,391.649 294.788,385.649 295,379.5C 291.392,384.222 286.559,386.722 280.5,387C 262.156,388.908 243.823,388.908 225.5,387C 222.007,386.058 218.674,384.725 215.5,383C 213.536,381.549 212.203,379.716 211.5,377.5C 209.842,370.644 209.176,363.644 209.5,356.5C 209.5,354.5 209.5,352.5 209.5,350.5C 205.72,349.597 201.886,348.931 198,348.5C 194.349,348.495 191.016,349.495 188,351.5C 187.753,360.203 187.086,368.87 186,377.5C 184.5,380.333 182.333,382.5 179.5,384C 173.674,386.099 167.674,387.432 161.5,388C 144.745,389.045 128.078,388.379 111.5,386C 107.726,384.698 104.559,382.531 102,379.5C 102.411,385.627 103.577,391.627 105.5,397.5C 103.167,397.5 100.833,397.5 98.5,397.5C 98.7373,396.209 98.404,395.209 97.5,394.5C 96.0054,385.214 94.6721,375.88 93.5,366.5C 91.6631,364.824 90.3298,362.824 89.5,360.5C 88.9518,358.374 88.2852,356.374 87.5,354.5C 87.5,354.167 87.5,353.833 87.5,353.5C 86.9603,349.358 86.2937,345.358 85.5,341.5C 82.3445,340.035 79.5112,340.701 77,343.5C 74.4017,347.628 73.235,352.128 73.5,357C 72.8969,372.468 77.5636,385.968 87.5,397.5C 84.5,397.5 81.5,397.5 78.5,397.5C 71.9553,389.373 68.4553,380.039 68,369.5C 67.3333,362.167 67.3333,354.833 68,347.5C 69.644,342.202 72.4773,337.702 76.5,334C 75.1208,322.959 75.4541,311.959 77.5,301C 77.3333,300.5 77.1667,300 77,299.5C 75.1295,301.219 72.9628,302.219 70.5,302.5C 70.7725,294.532 72.4392,286.865 75.5,279.5C 74.4425,279.094 73.1092,279.094 71.5,279.5C 72.2837,273.592 73.9504,267.926 76.5,262.5C 75.7261,261.289 74.8928,261.289 74,262.5C 73.1301,261.892 72.6301,261.059 72.5,260C 77.0301,244.27 85.3634,230.936 97.5,220C 93.5,219 89.5,218 85.5,217C 85.0426,216.586 84.7093,216.086 84.5,215.5C 91.1569,209.671 98.8236,205.671 107.5,203.5C 106.728,199.548 106.395,195.548 106.5,191.5C 112.583,193.122 118.416,195.455 124,198.5C 136.043,191.26 148.877,185.76 162.5,182C 160.167,181 157.833,180 155.5,179C 154.167,178 154.167,177 155.5,176C 158.789,175.118 162.123,174.452 165.5,174C 176.193,173.489 186.859,173.489 197.5,174C 190.397,171.188 183.064,169.188 175.5,168C 175.043,167.586 174.709,167.086 174.5,166.5C 186.252,165.684 197.419,168.018 208,173.5C 208.5,173.333 209,173.167 209.5,173C 207.623,170.181 207.29,167.347 208.5,164.5 Z M 247.5,184.5 C 246.994,186.105 246.327,186.439 245.5,185.5C 245.842,184.662 246.508,184.328 247.5,184.5 Z"/></g>
<g><path style="opacity:1" fill="#e2c579" d="M 247.5,148.5 C 253.63,162.246 264.297,169.579 279.5,170.5C 281.292,171.309 283.292,171.809 285.5,172C 271.562,178.546 256.895,181.212 241.5,180C 237.106,179.293 233.106,177.793 229.5,175.5C 235.472,176.474 241.472,176.641 247.5,176C 253.329,175.849 255.829,173.016 255,167.5C 251.128,163.09 248.295,158.09 246.5,152.5C 246.833,151.167 247.167,149.833 247.5,148.5 Z"/></g>
<g><path style="opacity:1" fill="#6c4a2c" d="M 205.5,130.5 C 205.5,134.833 205.5,139.167 205.5,143.5C 205.927,146.01 206.593,148.343 207.5,150.5C 207.345,153.716 208.345,156.383 210.5,158.5C 211.34,160.853 212.674,162.853 214.5,164.5C 218.248,169.874 223.248,173.541 229.5,175.5C 233.106,177.793 237.106,179.293 241.5,180C 256.895,181.212 271.562,178.546 285.5,172C 283.292,171.809 281.292,171.309 279.5,170.5C 283.833,170.5 288.167,170.5 292.5,170.5C 291.833,171.5 291.167,172.5 290.5,173.5C 288.596,173.738 287.262,174.738 286.5,176.5C 287.167,176.5 287.5,176.833 287.5,177.5C 286.791,178.404 285.791,178.737 284.5,178.5C 283.833,177.167 283.167,177.167 282.5,178.5C 281.508,178.328 280.842,178.662 280.5,179.5C 279.209,179.263 278.209,179.596 277.5,180.5C 276.209,180.263 275.209,180.596 274.5,181.5C 274.167,181.5 273.833,181.5 273.5,181.5C 270.246,181.207 267.246,181.874 264.5,183.5C 262.833,182.167 261.167,182.167 259.5,183.5C 258.833,183.5 258.167,183.5 257.5,183.5C 256.5,183.5 255.5,183.5 254.5,183.5C 252.194,183.993 249.861,184.326 247.5,184.5C 246.432,183.566 245.099,183.232 243.5,183.5C 243.167,183.5 242.833,183.5 242.5,183.5C 240.735,182.539 238.735,182.205 236.5,182.5C 225.669,179.593 216.669,173.926 209.5,165.5C 209.5,164.833 209.167,164.5 208.5,164.5C 208.068,163.29 207.401,162.29 206.5,161.5C 206.008,159.181 205.008,157.181 203.5,155.5C 203.435,152.572 202.768,149.905 201.5,147.5C 201.5,142.167 201.5,136.833 201.5,131.5C 202.833,131.167 204.167,130.833 205.5,130.5 Z"/></g>
<g><path style="opacity:0.008" fill="#463941" d="M 282.5,179.5 C 282.5,179.167 282.5,178.833 282.5,178.5C 283.167,178.5 283.833,178.5 284.5,178.5C 284.158,179.338 283.492,179.672 282.5,179.5 Z"/></g>
<g><path style="opacity:0.008" fill="#463842" d="M 342.5,182.5 C 342.343,181.127 342.51,179.793 343,178.5C 343.765,180.066 343.598,181.399 342.5,182.5 Z"/></g>
<g><path style="opacity:0.008" fill="#49383f" d="M 280.5,180.5 C 280.5,180.167 280.5,179.833 280.5,179.5C 281.167,179.5 281.833,179.5 282.5,179.5C 282.158,180.338 281.492,180.672 280.5,180.5 Z"/></g>
<g><path style="opacity:1" fill="#36241b" d="M 234.5,185.5 C 232.968,188.057 231.301,190.557 229.5,193C 225.5,193.333 221.5,193.667 217.5,194C 214.261,195.736 211.927,198.236 210.5,201.5C 205.978,206.235 204.144,211.902 205,218.5C 206.894,212.118 210.727,207.451 216.5,204.5C 216.5,206.167 216.5,207.833 216.5,209.5C 222.011,206.915 227.678,204.582 233.5,202.5C 234.5,202.833 235.5,203.167 236.5,203.5C 234.829,205.51 234.162,207.843 234.5,210.5C 238.049,209.321 241.716,208.321 245.5,207.5C 245.335,210.518 245.502,213.518 246,216.5C 247.333,217.833 248.667,217.833 250,216.5C 251.413,213.339 253.08,210.339 255,207.5C 256.11,205.963 257.61,205.297 259.5,205.5C 265.967,206.974 272.634,207.974 279.5,208.5C 281.609,209.391 283.609,210.558 285.5,212C 281.565,212.084 277.898,213.084 274.5,215C 284.766,220.308 293.766,227.308 301.5,236C 298.691,236.134 295.857,235.968 293,235.5C 290.7,235.494 288.534,235.994 286.5,237C 291.167,240 295.833,243 300.5,246C 303.597,248.391 305.763,251.224 307,254.5C 303.132,250.815 298.632,248.648 293.5,248C 296.28,249.812 298.78,251.979 301,254.5C 305.154,261.459 308.154,268.793 310,276.5C 307.341,272.434 303.841,270.434 299.5,270.5C 302.457,274.437 304.457,278.771 305.5,283.5C 306.492,286.779 306.659,290.112 306,293.5C 304.887,291.671 303.387,290.837 301.5,291C 303.491,293.483 304.491,296.316 304.5,299.5C 302.852,306.093 301.519,312.759 300.5,319.5C 300.36,321.03 299.693,322.03 298.5,322.5C 297.637,319.077 296.47,315.744 295,312.5C 294.63,307.07 294.963,301.736 296,296.5C 293.528,288.889 290.028,281.889 285.5,275.5C 289.351,269.376 290.351,262.709 288.5,255.5C 287.333,257.167 286.167,258.833 285,260.5C 284.667,255.167 284.333,249.833 284,244.5C 282.587,241.339 280.92,238.339 279,235.5C 276.539,255.267 266.872,270.267 250,280.5C 249.601,280.272 249.435,279.938 249.5,279.5C 255.943,271.277 259.61,261.944 260.5,251.5C 261.93,246.461 261.764,241.461 260,236.5C 256.329,247.503 248.829,254.337 237.5,257C 222.74,259.321 208.24,258.155 194,253.5C 193.5,253.667 193,253.833 192.5,254C 199.068,258.95 206.401,262.283 214.5,264C 196.497,262.995 180.83,256.495 167.5,244.5C 174.292,248.765 181.458,252.432 189,255.5C 189.5,255.333 190,255.167 190.5,255C 184.83,252.167 179.497,248.834 174.5,245C 179.56,246.46 184.727,247.96 190,249.5C 191.07,249.472 191.903,249.139 192.5,248.5C 204.421,252.328 216.421,252.495 228.5,249C 215.532,249.448 202.865,247.781 190.5,244C 201.052,240.385 209.385,233.885 215.5,224.5C 215.167,224.167 214.833,223.833 214.5,223.5C 206.953,229.857 198.286,234.023 188.5,236C 181.321,236.171 174.321,236.671 167.5,237.5C 161.764,233.876 156.264,229.876 151,225.5C 150.333,226.167 150.333,226.833 151,227.5C 153.782,229.771 155.949,232.437 157.5,235.5C 144.625,229.457 136.791,219.457 134,205.5C 131.824,215.977 133.991,225.477 140.5,234C 133.863,232.435 127.696,229.602 122,225.5C 123.618,234.564 127.785,242.397 134.5,249C 135.332,249.688 135.998,249.521 136.5,248.5C 132.91,244.636 130.41,240.303 129,235.5C 139.186,243.009 150.686,247.176 163.5,248C 170.307,255.145 177.973,261.145 186.5,266C 184.078,266.135 181.745,265.635 179.5,264.5C 175.601,262.614 171.934,260.281 168.5,257.5C 167.708,258.7 167.708,260.033 168.5,261.5C 170.308,265.599 172.975,269.099 176.5,272C 166.339,272.211 156.672,270.044 147.5,265.5C 147.167,265.667 146.833,265.833 146.5,266C 150.547,269.692 155.214,272.359 160.5,274C 154.456,273.263 148.79,271.43 143.5,268.5C 139.532,265.824 135.865,262.657 132.5,259C 136.028,258.911 139.362,258.244 142.5,257C 136.107,256.913 129.94,255.746 124,253.5C 122.316,253.683 122.15,254.35 123.5,255.5C 122.844,262.192 125.511,267.525 131.5,271.5C 127.849,280.815 121.516,287.482 112.5,291.5C 115.808,288.225 118.642,284.558 121,280.5C 122.187,278.956 122.52,277.289 122,275.5C 118.917,280.588 115.083,285.088 110.5,289C 105.167,292 99.8333,295 94.5,298C 97.3508,299.289 100.351,299.789 103.5,299.5C 103.167,301.5 102.833,303.5 102.5,305.5C 99.1738,310.145 96.3405,315.145 94,320.5C 91.7533,313.674 90.42,306.674 90,299.5C 88.9563,300.623 88.2896,301.956 88,303.5C 86.6632,299.974 86.1632,296.308 86.5,292.5C 88.1075,286.175 90.7742,280.342 94.5,275C 90.0138,275.778 86.1805,277.945 83,281.5C 84.4689,276.222 86.8023,271.222 90,266.5C 96.0637,260.397 94.8971,259.063 86.5,262.5C 89.8789,254.256 94.8789,247.09 101.5,241C 97.5662,241.133 94.2329,242.633 91.5,245.5C 88.6277,246.526 86.1277,248.192 84,250.5C 83.8333,250.167 83.6667,249.833 83.5,249.5C 85.7828,244.577 88.7828,240.244 92.5,236.5C 100.981,228.568 110.315,221.568 120.5,215.5C 117.428,213.728 114.095,212.561 110.5,212C 115.448,210.744 120.448,209.744 125.5,209C 122.183,208.502 118.85,208.335 115.5,208.5C 115.167,206.5 114.833,204.5 114.5,202.5C 118.379,204.075 122.379,204.908 126.5,205C 145.619,193.552 166.286,186.719 188.5,184.5C 187.636,182.803 186.303,181.637 184.5,181C 199.885,181.348 214.385,185.182 228,192.5C 227.615,187.567 225.448,183.401 221.5,180C 222.5,179.333 223.5,179.333 224.5,180C 227.727,182.112 231.06,183.945 234.5,185.5 Z"/></g>
<g><path style="opacity:0.008" fill="#453842" d="M 277.5,181.5 C 277.5,181.167 277.5,180.833 277.5,180.5C 278.5,180.5 279.5,180.5 280.5,180.5C 279.791,181.404 278.791,181.737 277.5,181.5 Z"/></g>
<g><path style="opacity:0.016" fill="#49373d" d="M 274.5,182.5 C 274.5,182.167 274.5,181.833 274.5,181.5C 275.5,181.5 276.5,181.5 277.5,181.5C 276.791,182.404 275.791,182.737 274.5,182.5 Z"/></g>
<g><path style="opacity:0.008" fill="#463941" d="M 341.5,182.5 C 341.833,182.5 342.167,182.5 342.5,182.5C 342.315,183.17 341.981,183.17 341.5,182.5 Z"/></g>
<g><path style="opacity:0.004" fill="#413742" d="M 340.5,184.5 C 341.833,185.167 341.833,185.167 340.5,184.5 Z"/></g>
<g><path style="opacity:1" fill="#62554e" d="M 176.5,188.5 C 183.841,188.334 191.174,188.5 198.5,189C 202.76,190.132 206.76,191.799 210.5,194C 203.85,193.695 197.183,193.695 190.5,194C 184.96,194.967 179.627,196.3 174.5,198C 176.305,195.597 178.638,193.93 181.5,193C 177.833,192.333 174.167,192.333 170.5,193C 167.18,194.116 163.847,194.783 160.5,195C 165.744,192.315 171.077,190.148 176.5,188.5 Z"/></g>
<g><path style="opacity:0.008" fill="#463941" d="M 333.5,189.5 C 333.5,189.167 333.5,188.833 333.5,188.5C 334.167,188.5 334.833,188.5 335.5,188.5C 335.158,189.338 334.492,189.672 333.5,189.5 Z"/></g>
<g><path style="opacity:0.004" fill="#48373e" d="M 303.5,193.5 C 304.167,193.5 304.5,193.833 304.5,194.5C 304.833,195.833 305.167,195.833 305.5,194.5C 306.167,194.5 306.5,194.833 306.5,195.5C 308.265,196.461 310.265,196.795 312.5,196.5C 308.986,198.022 305.653,197.522 302.5,195C 303.056,194.617 303.389,194.117 303.5,193.5 Z"/></g>
<g><path style="opacity:1" fill="#352319" d="M 266.5,202.5 C 265.5,202.5 264.5,202.5 263.5,202.5C 262.889,200.225 261.555,198.559 259.5,197.5C 267.649,195.957 275.649,196.457 283.5,199C 281.726,199.97 279.893,200.804 278,201.5C 274.545,200.45 271.045,200.283 267.5,201C 266.944,201.383 266.611,201.883 266.5,202.5 Z"/></g>
<g><path style="opacity:1" fill="#1c0902" d="M 210.5,201.5 C 210.866,202.695 211.699,203.361 213,203.5C 214.465,202.67 215.965,202.504 217.5,203C 216.944,203.383 216.611,203.883 216.5,204.5C 210.727,207.451 206.894,212.118 205,218.5C 204.144,211.902 205.978,206.235 210.5,201.5 Z"/></g>
<g><path style="opacity:1" fill="#773a08" d="M 236.5,182.5 C 238.735,182.205 240.735,182.539 242.5,183.5C 238.798,183.226 236.465,184.892 235.5,188.5C 233.732,190.508 232.066,192.674 230.5,195C 226.833,195.333 223.167,195.667 219.5,196C 216.977,196.518 214.977,197.852 213.5,200C 216.486,199.872 219.486,199.872 222.5,200C 220.612,201.95 219.446,204.117 219,206.5C 225.361,201.824 232.527,199.324 240.5,199C 238.602,198.1 236.936,196.934 235.5,195.5C 236.763,193.971 237.763,192.305 238.5,190.5C 240.4,188.381 242.066,186.047 243.5,183.5C 245.099,183.232 246.432,183.566 247.5,184.5C 246.508,184.328 245.842,184.662 245.5,185.5C 243.31,188.688 240.976,191.855 238.5,195C 240.323,195.997 241.99,197.164 243.5,198.5C 248.308,198.452 250.974,196.118 251.5,191.5C 253.02,189.11 254.02,186.443 254.5,183.5C 255.5,183.5 256.5,183.5 257.5,183.5C 256.637,185.421 255.971,187.421 255.5,189.5C 254.306,192.913 252.64,196.08 250.5,199C 244.008,198.877 239.841,201.71 238,207.5C 241.293,205.792 244.793,204.792 248.5,204.5C 247.624,207.799 247.457,211.132 248,214.5C 250.297,207.867 254.797,203.7 261.5,202C 260.377,200.956 259.044,200.29 257.5,200C 256.941,199.275 256.608,198.442 256.5,197.5C 257.51,194.817 258.51,192.151 259.5,189.5C 260.361,187.614 261.361,185.78 262.5,184C 261.552,183.517 260.552,183.351 259.5,183.5C 261.167,182.167 262.833,182.167 264.5,183.5C 262.826,188.177 261.16,192.844 259.5,197.5C 261.555,198.559 262.889,200.225 263.5,202.5C 263.5,203.5 263.5,204.5 263.5,205.5C 262.167,205.5 260.833,205.5 259.5,205.5C 257.61,205.297 256.11,205.963 255,207.5C 253.08,210.339 251.413,213.339 250,216.5C 248.667,217.833 247.333,217.833 246,216.5C 245.502,213.518 245.335,210.518 245.5,207.5C 241.716,208.321 238.049,209.321 234.5,210.5C 234.162,207.843 234.829,205.51 236.5,203.5C 235.5,203.167 234.5,202.833 233.5,202.5C 227.678,204.582 222.011,206.915 216.5,209.5C 216.5,207.833 216.5,206.167 216.5,204.5C 216.611,203.883 216.944,203.383 217.5,203C 215.965,202.504 214.465,202.67 213,203.5C 211.699,203.361 210.866,202.695 210.5,201.5C 211.927,198.236 214.261,195.736 217.5,194C 221.5,193.667 225.5,193.333 229.5,193C 231.301,190.557 232.968,188.057 234.5,185.5C 235.401,184.71 236.068,183.71 236.5,182.5 Z M 247.5,184.5 C 246.994,186.105 246.327,186.439 245.5,185.5C 245.842,184.662 246.508,184.328 247.5,184.5 Z"/></g>
<g><path style="opacity:1" fill="#ea8f09" d="M 255.5,189.5 C 256.833,189.5 258.167,189.5 259.5,189.5C 258.51,192.151 257.51,194.817 256.5,197.5C 256.608,198.442 256.941,199.275 257.5,200C 259.044,200.29 260.377,200.956 261.5,202C 254.797,203.7 250.297,207.867 248,214.5C 247.457,211.132 247.624,207.799 248.5,204.5C 244.793,204.792 241.293,205.792 238,207.5C 239.841,201.71 244.008,198.877 250.5,199C 252.64,196.08 254.306,192.913 255.5,189.5 Z"/></g>
<g><path style="opacity:1" fill="#5d4b40" d="M 251.5,191.5 C 250.974,196.118 248.308,198.452 243.5,198.5C 246.126,196.177 248.793,193.843 251.5,191.5 Z"/></g>
<g><path style="opacity:1" fill="#eb8f06" d="M 235.5,188.5 C 236.71,188.932 237.71,189.599 238.5,190.5C 237.763,192.305 236.763,193.971 235.5,195.5C 236.936,196.934 238.602,198.1 240.5,199C 232.527,199.324 225.361,201.824 219,206.5C 219.446,204.117 220.612,201.95 222.5,200C 219.486,199.872 216.486,199.872 213.5,200C 214.977,197.852 216.977,196.518 219.5,196C 223.167,195.667 226.833,195.333 230.5,195C 232.066,192.674 233.732,190.508 235.5,188.5 Z"/></g>
<g><path style="opacity:1" fill="#d66b00" d="M 257.5,183.5 C 258.167,183.5 258.833,183.5 259.5,183.5C 260.552,183.351 261.552,183.517 262.5,184C 261.361,185.78 260.361,187.614 259.5,189.5C 258.167,189.5 256.833,189.5 255.5,189.5C 255.971,187.421 256.637,185.421 257.5,183.5 Z"/></g>
<g><path style="opacity:0.967" fill="#120b07" d="M 254.5,183.5 C 254.02,186.443 253.02,189.11 251.5,191.5C 248.793,193.843 246.126,196.177 243.5,198.5C 241.99,197.164 240.323,195.997 238.5,195C 240.976,191.855 243.31,188.688 245.5,185.5C 246.327,186.439 246.994,186.105 247.5,184.5C 249.861,184.326 252.194,183.993 254.5,183.5 Z"/></g>
<g><path style="opacity:1" fill="#d76c01" d="M 242.5,183.5 C 242.833,183.5 243.167,183.5 243.5,183.5C 242.066,186.047 240.4,188.381 238.5,190.5C 237.71,189.599 236.71,188.932 235.5,188.5C 236.465,184.892 238.798,183.226 242.5,183.5 Z"/></g>
<g><path style="opacity:1" fill="#61534b" d="M 263.5,202.5 C 264.5,202.5 265.5,202.5 266.5,202.5C 271.438,203.36 275.772,205.36 279.5,208.5C 272.634,207.974 265.967,206.974 259.5,205.5C 260.833,205.5 262.167,205.5 263.5,205.5C 263.5,204.5 263.5,203.5 263.5,202.5 Z"/></g>
<g><path style="opacity:1" fill="#1b0802" d="M 220.5,209.5 C 223.187,209.336 225.854,209.503 228.5,210C 221.871,212.819 215.537,215.819 209.5,219C 212.412,214.89 216.078,211.723 220.5,209.5 Z"/></g>
<g><path style="opacity:1" fill="#5f524b" d="M 115.5,208.5 C 118.85,208.335 122.183,208.502 125.5,209C 120.448,209.744 115.448,210.744 110.5,212C 114.095,212.561 117.428,213.728 120.5,215.5C 110.315,221.568 100.981,228.568 92.5,236.5C 98.333,228.501 105.333,221.667 113.5,216C 109.668,214.375 105.668,213.375 101.5,213C 106.019,210.993 110.686,209.493 115.5,208.5 Z"/></g>
<g><path style="opacity:1" fill="#60534c" d="M 150.5,218.5 C 157.337,222.28 164.671,224.78 172.5,226C 178.791,227.051 184.791,226.217 190.5,223.5C 190.043,222.702 189.376,222.369 188.5,222.5C 182.59,219.609 177.423,215.609 173,210.5C 172.333,209.833 172.333,209.167 173,208.5C 182.291,215.894 192.791,220.728 204.5,223C 190.239,230.927 175.572,231.594 160.5,225C 156.589,223.556 153.256,221.389 150.5,218.5 Z"/></g>
<g><path style="opacity:1" fill="#1b0a04" d="M 188.5,222.5 C 189.376,222.369 190.043,222.702 190.5,223.5C 184.791,226.217 178.791,227.051 172.5,226C 164.671,224.78 157.337,222.28 150.5,218.5C 147.068,216.248 143.734,213.748 140.5,211C 146.288,213.377 152.288,215.544 158.5,217.5C 159.167,217.333 159.833,217.167 160.5,217C 159.333,215.833 158.167,214.667 157,213.5C 156.312,212.668 156.479,212.002 157.5,211.5C 166.933,217.717 177.266,221.384 188.5,222.5 Z"/></g>
<g><path style="opacity:1" fill="#62554e" d="M 232.5,213.5 C 234.199,213.34 235.866,213.506 237.5,214C 232.373,219.061 226.707,223.394 220.5,227C 219.789,228.255 218.956,229.421 218,230.5C 220.067,222.591 224.9,216.924 232.5,213.5 Z"/></g>
<g><path style="opacity:1" fill="#62554e" d="M 254.5,215.5 C 261.686,232.086 257.02,244.586 240.5,253C 232.98,255.301 225.314,255.968 217.5,255C 230.635,255.18 241.469,250.346 250,240.5C 250.982,239.241 251.315,237.908 251,236.5C 247.047,239.9 242.547,241.733 237.5,242C 249.097,236.973 254.764,228.139 254.5,215.5 Z"/></g>
<g><path style="opacity:1" fill="#160501" d="M 245.5,218.5 C 244.469,233.045 236.469,241.545 221.5,244C 216.167,244.667 210.833,244.667 205.5,244C 222.015,240.256 235.349,231.756 245.5,218.5 Z"/></g>
<g><path style="opacity:1" fill="#1b0802" d="M 192.5,248.5 C 183.555,246.194 175.222,242.527 167.5,237.5C 174.321,236.671 181.321,236.171 188.5,236C 198.286,234.023 206.953,229.857 214.5,223.5C 214.833,223.833 215.167,224.167 215.5,224.5C 209.385,233.885 201.052,240.385 190.5,244C 202.865,247.781 215.532,249.448 228.5,249C 216.421,252.495 204.421,252.328 192.5,248.5 Z"/></g>
<g><path style="opacity:1" fill="#60524b" d="M 167.5,237.5 C 175.222,242.527 183.555,246.194 192.5,248.5C 191.903,249.139 191.07,249.472 190,249.5C 184.727,247.96 179.56,246.46 174.5,245C 179.497,248.834 184.83,252.167 190.5,255C 190,255.167 189.5,255.333 189,255.5C 181.458,252.432 174.292,248.765 167.5,244.5C 164.789,240.788 161.456,237.788 157.5,235.5C 155.949,232.437 153.782,229.771 151,227.5C 150.333,226.833 150.333,226.167 151,225.5C 156.264,229.876 161.764,233.876 167.5,237.5 Z"/></g>
<g><path style="opacity:1" fill="#190600" d="M 285.5,275.5 C 282.517,272.24 279.517,268.906 276.5,265.5C 277.973,262.285 278.473,258.951 278,255.5C 272.682,268.492 263.349,277.159 250,281.5C 248.282,280.969 248.115,280.302 249.5,279.5C 249.435,279.938 249.601,280.272 250,280.5C 266.872,270.267 276.539,255.267 279,235.5C 280.92,238.339 282.587,241.339 284,244.5C 284.333,249.833 284.667,255.167 285,260.5C 286.167,258.833 287.333,257.167 288.5,255.5C 290.351,262.709 289.351,269.376 285.5,275.5 Z"/></g>
<g><path style="opacity:1" fill="#180600" d="M 157.5,235.5 C 161.456,237.788 164.789,240.788 167.5,244.5C 180.83,256.495 196.497,262.995 214.5,264C 206.401,262.283 199.068,258.95 192.5,254C 193,253.833 193.5,253.667 194,253.5C 208.24,258.155 222.74,259.321 237.5,257C 248.829,254.337 256.329,247.503 260,236.5C 261.764,241.461 261.93,246.461 260.5,251.5C 258.547,254.141 257.047,257.141 256,260.5C 254.833,261.667 253.667,262.833 252.5,264C 242.779,268.664 233.112,268.497 223.5,263.5C 222.289,264.274 222.289,265.107 223.5,266C 225.67,267.586 228.004,268.92 230.5,270C 226.318,273.09 221.651,275.09 216.5,276C 202.492,277.253 190.158,273.419 179.5,264.5C 181.745,265.635 184.078,266.135 186.5,266C 177.973,261.145 170.307,255.145 163.5,248C 150.686,247.176 139.186,243.009 129,235.5C 130.41,240.303 132.91,244.636 136.5,248.5C 135.998,249.521 135.332,249.688 134.5,249C 127.785,242.397 123.618,234.564 122,225.5C 127.696,229.602 133.863,232.435 140.5,234C 133.991,225.477 131.824,215.977 134,205.5C 136.791,219.457 144.625,229.457 157.5,235.5 Z"/></g>
<g><path style="opacity:1" fill="#5e514a" d="M 86.5,262.5 C 86.1034,263.525 85.4368,263.692 84.5,263C 86.9331,257.2 89.2664,251.366 91.5,245.5C 94.2329,242.633 97.5662,241.133 101.5,241C 94.8789,247.09 89.8789,254.256 86.5,262.5 Z"/></g>
<g><path style="opacity:1" fill="#5f514a" d="M 266.5,238.5 C 269.277,241.978 270.11,245.978 269,250.5C 267.444,255.28 265.111,259.613 262,263.5C 263.463,258.657 264.796,253.657 266,248.5C 266.498,245.183 266.665,241.85 266.5,238.5 Z"/></g>
<g><path style="opacity:1" fill="#60524b" d="M 117.5,247.5 C 111.188,250.478 106.522,255.145 103.5,261.5C 103.438,256.129 105.772,251.629 110.5,248C 108.023,247.76 105.856,248.594 104,250.5C 103.333,249.833 103.333,249.167 104,248.5C 109.028,243.421 114.861,242.255 121.5,245C 120.142,245.934 118.808,246.768 117.5,247.5 Z"/></g>
<g><path style="opacity:1" fill="#1b0802" d="M 117.5,247.5 C 117.938,247.435 118.272,247.601 118.5,248C 111.943,252.647 108.943,258.814 109.5,266.5C 112.501,264.156 115.835,263.323 119.5,264C 116.048,264.892 113.048,266.558 110.5,269C 107.375,272.113 104.375,275.28 101.5,278.5C 99.9933,272.565 100.66,266.898 103.5,261.5C 106.522,255.145 111.188,250.478 117.5,247.5 Z"/></g>
<g><path style="opacity:1" fill="#60524b" d="M 136.5,243.5 C 146.096,251.97 156.429,259.47 167.5,266C 154.545,262.226 144.212,254.726 136.5,243.5 Z"/></g>
<g><path style="opacity:1" fill="#5d4f49" d="M 143.5,268.5 C 135.838,265.671 129.172,261.338 123.5,255.5C 122.15,254.35 122.316,253.683 124,253.5C 129.94,255.746 136.107,256.913 142.5,257C 139.362,258.244 136.028,258.911 132.5,259C 135.865,262.657 139.532,265.824 143.5,268.5 Z"/></g>
<g><path style="opacity:1" fill="#190600" d="M 123.5,255.5 C 129.172,261.338 135.838,265.671 143.5,268.5C 148.79,271.43 154.456,273.263 160.5,274C 155.214,272.359 150.547,269.692 146.5,266C 146.833,265.833 147.167,265.667 147.5,265.5C 156.672,270.044 166.339,272.211 176.5,272C 172.975,269.099 170.308,265.599 168.5,261.5C 169.552,261.351 170.552,261.517 171.5,262C 177.684,267.843 184.684,272.51 192.5,276C 173.121,282.35 154.788,280.183 137.5,269.5C 136.479,270.002 136.312,270.668 137,271.5C 139.158,272.826 140.992,274.493 142.5,276.5C 133.846,289.828 121.513,296.328 105.5,296C 107.734,294.25 110.068,292.75 112.5,291.5C 121.516,287.482 127.849,280.815 131.5,271.5C 125.511,267.525 122.844,262.192 123.5,255.5 Z"/></g>
<g><path style="opacity:1" fill="#f3b68f" d="M 251.5,267.5 C 252.043,267.56 252.376,267.893 252.5,268.5C 249.317,275.02 244.983,280.687 239.5,285.5C 251.278,285.87 261.445,281.87 270,273.5C 269.602,275.631 268.602,277.631 267,279.5C 264.075,281.714 261.241,284.047 258.5,286.5C 264.023,286.136 268.523,283.469 272,278.5C 273.333,275.833 274.667,273.167 276,270.5C 287.521,280.864 292.521,293.864 291,309.5C 295.554,319.042 297.221,329.042 296,339.5C 294.2,337.683 292.034,336.516 289.5,336C 265.741,333.679 242.074,334.345 218.5,338C 215.945,339.444 213.279,340.611 210.5,341.5C 202.18,338.631 194.013,338.964 186,342.5C 182.639,339.737 178.805,337.903 174.5,337C 151.864,334.171 129.198,333.838 106.5,336C 103.417,336.786 101.251,338.619 100,341.5C 99.3333,335.5 99.3333,329.5 100,323.5C 103.418,315.827 105.585,307.827 106.5,299.5C 123.611,299.033 136.777,291.699 146,277.5C 162.94,285.374 179.94,285.374 197,277.5C 210.725,281.897 223.225,279.731 234.5,271C 238.5,270.667 242.5,270.333 246.5,270C 248.491,269.626 250.158,268.793 251.5,267.5 Z"/></g>
<g><path style="opacity:1" fill="#190600" d="M 305.5,283.5 C 306.117,283.611 306.617,283.944 307,284.5C 311.451,300.902 312.618,317.569 310.5,334.5C 309.472,332.56 309.472,330.56 310.5,328.5C 310.333,327.833 310.167,327.167 310,326.5C 306.375,331.211 304.875,336.544 305.5,342.5C 303.5,342.5 301.5,342.5 299.5,342.5C 299.713,335.789 299.38,329.123 298.5,322.5C 299.693,322.03 300.36,321.03 300.5,319.5C 301.519,312.759 302.852,306.093 304.5,299.5C 304.491,296.316 303.491,293.483 301.5,291C 303.387,290.837 304.887,291.671 306,293.5C 306.659,290.112 306.492,286.779 305.5,283.5 Z"/></g>
<g><path style="opacity:1" fill="#190600" d="M 86.5,292.5 C 86.1632,296.308 86.6632,299.974 88,303.5C 88.2896,301.956 88.9563,300.623 90,299.5C 90.42,306.674 91.7533,313.674 94,320.5C 96.3405,315.145 99.1738,310.145 102.5,305.5C 100.582,311.424 98.749,317.424 97,323.5C 96.5005,329.825 96.3338,336.158 96.5,342.5C 94.1667,342.5 91.8333,342.5 89.5,342.5C 89.5414,337.205 88.3747,332.205 86,327.5C 84.9823,326.294 84.4823,326.627 84.5,328.5C 85.5284,330.56 85.5284,332.56 84.5,334.5C 83.914,334.291 83.414,333.957 83,333.5C 82.3333,324.5 82.3333,315.5 83,306.5C 83.7409,301.598 84.9076,296.932 86.5,292.5 Z"/></g>
<g><path style="opacity:1" fill="#5e3421" d="M 137.5,304.5 C 149.739,304.082 161.739,305.582 173.5,309C 179.578,310.99 182.245,315.157 181.5,321.5C 173.817,319.83 166.151,317.996 158.5,316C 141.843,311.911 126.343,314.411 112,323.5C 114.576,317.57 118.742,312.736 124.5,309C 128.614,306.461 132.947,304.961 137.5,304.5 Z"/></g>
<g><path style="opacity:1" fill="#5e3320" d="M 241.5,304.5 C 260.283,301.251 274.95,307.418 285.5,323C 278.798,320.758 272.131,318.092 265.5,315C 257.833,314.333 250.167,314.333 242.5,315C 233.517,317.23 224.517,319.397 215.5,321.5C 214.782,314.133 218.115,309.633 225.5,308C 230.989,306.925 236.322,305.759 241.5,304.5 Z"/></g>
<g><path style="opacity:1" fill="#0f0c0b" d="M 182.5,349.5 C 182.5,356.5 182.5,363.5 182.5,370.5C 181.312,376.52 177.645,380.02 171.5,381C 150.646,384.825 129.98,384.158 109.5,379C 105.349,375.777 103.349,371.61 103.5,366.5C 103.334,359.492 103.5,352.492 104,345.5C 106.027,342.481 108.861,340.648 112.5,340C 127.833,339.333 143.167,339.333 158.5,340C 165.633,340.685 172.633,342.019 179.5,344C 181.607,345.264 182.607,347.097 182.5,349.5 Z"/></g>
<g><path style="opacity:1" fill="#0e0c0a" d="M 293.5,345.5 C 293.891,355.233 293.391,364.9 292,374.5C 289.235,378.471 285.402,380.804 280.5,381.5C 265.21,383.609 249.876,383.943 234.5,382.5C 219.025,383.029 212.358,375.696 214.5,360.5C 214.527,355.753 214.86,351.087 215.5,346.5C 218.635,343.054 222.635,341.221 227.5,341C 245.146,339.573 262.813,339.24 280.5,340C 283.529,340.539 286.529,341.206 289.5,342C 291.35,342.69 292.684,343.856 293.5,345.5 Z"/></g>
<g><path style="opacity:1" fill="#ecb08b" d="M 85.5,341.5 C 85.6621,343.527 85.4955,345.527 85,347.5C 82.9361,346.409 80.7695,346.242 78.5,347C 79.6934,348.095 81.0267,348.928 82.5,349.5C 80.2995,351.262 79.1328,353.596 79,356.5C 78.0028,371.001 82.5028,383.501 92.5,394C 94.1341,394.494 95.8008,394.66 97.5,394.5C 98.404,395.209 98.7373,396.209 98.5,397.5C 94.8333,397.5 91.1667,397.5 87.5,397.5C 77.5636,385.968 72.8969,372.468 73.5,357C 73.235,352.128 74.4017,347.628 77,343.5C 79.5112,340.701 82.3445,340.035 85.5,341.5 Z"/></g>
<g><path style="opacity:1" fill="#ebb08b" d="M 264.5,342.5 C 269.65,341.349 274.984,341.183 280.5,342C 284.425,342.063 287.925,343.229 291,345.5C 291.667,354.167 291.667,362.833 291,371.5C 290.654,373.848 289.487,375.681 287.5,377C 283.019,378.954 278.352,380.287 273.5,381C 259.5,381.667 245.5,381.667 231.5,381C 226.436,380.448 221.936,378.615 218,375.5C 216.517,372.298 216.183,368.964 217,365.5C 241.017,385.205 263.183,383.205 283.5,359.5C 285.162,356.176 286.829,352.842 288.5,349.5C 285.766,349.501 282.766,349.334 279.5,349C 280.833,347.667 282.167,346.333 283.5,345C 277.083,344.675 270.749,343.842 264.5,342.5 Z"/></g>
<g><path style="opacity:1" fill="#efb28c" d="M 309.5,397.5 C 305.833,397.5 302.167,397.5 298.5,397.5C 298.5,396.833 298.5,396.167 298.5,395.5C 301.939,395.411 304.772,394.078 307,391.5C 315.948,380.38 319.281,367.713 317,353.5C 316.338,352.016 315.504,350.683 314.5,349.5C 317.831,348.427 317.998,347.427 315,346.5C 313.061,346.954 311.228,347.621 309.5,348.5C 309.739,346.533 309.406,344.699 308.5,343C 309.328,342.085 310.328,341.419 311.5,341C 316.823,340.621 320.323,343.121 322,348.5C 325.12,366.88 320.954,383.213 309.5,397.5 Z"/></g>
<g><path style="opacity:1" fill="#b6b6b6" d="M 294.5,344.5 C 294.5,345.167 294.167,345.5 293.5,345.5C 292.684,343.856 291.35,342.69 289.5,342C 286.529,341.206 283.529,340.539 280.5,340C 262.813,339.24 245.146,339.573 227.5,341C 222.635,341.221 218.635,343.054 215.5,346.5C 214.417,346.539 213.417,346.873 212.5,347.5C 209.388,345.816 206.054,345.15 202.5,345.5C 196.234,345.119 190.401,346.452 185,349.5C 184.5,355.825 184.334,362.158 184.5,368.5C 183.833,362.167 183.167,355.833 182.5,349.5C 182.607,347.097 181.607,345.264 179.5,344C 172.633,342.019 165.633,340.685 158.5,340C 143.167,339.333 127.833,339.333 112.5,340C 108.861,340.648 106.027,342.481 104,345.5C 103.5,352.492 103.334,359.492 103.5,366.5C 103.672,367.492 103.338,368.158 102.5,368.5C 102.334,359.827 102.5,351.16 103,342.5C 104.738,339.768 107.238,338.268 110.5,338C 126.167,337.333 141.833,337.333 157.5,338C 164.241,338.534 170.907,339.534 177.5,341C 180.577,341.619 183.077,343.119 185,345.5C 194,341.5 203,341.5 212,345.5C 213.775,344.73 215.275,343.563 216.5,342C 223.974,339.646 231.64,338.313 239.5,338C 254.5,337.333 269.5,337.333 284.5,338C 287.264,338.532 289.93,339.366 292.5,340.5C 293.705,341.577 294.372,342.91 294.5,344.5 Z"/></g>
<g><path style="opacity:1" fill="#e6ac88" d="M 162.5,343.5 C 169.382,342.019 175.549,343.686 181,348.5C 181.667,353.167 181.667,357.833 181,362.5C 176.649,354.317 170.482,347.983 162.5,343.5 Z"/></g>
<g><path style="opacity:1" fill="#e3aa86" d="M 228.5,342.5 C 230.199,342.34 231.866,342.506 233.5,343C 225.95,347.55 220.116,353.717 216,361.5C 212.846,349.973 217.013,343.64 228.5,342.5 Z"/></g>
<g><path style="opacity:1" fill="#909090" d="M 89.5,346.5 C 92.6868,345.194 96.0202,345.194 99.5,346.5C 99.3764,347.107 99.0431,347.44 98.5,347.5C 95.7131,346.523 92.7131,346.19 89.5,346.5 Z"/></g>
<g><path style="opacity:1" fill="#aa8455" d="M 165.5,352.5 C 162.024,359.571 156.358,362.405 148.5,361C 141.799,358.469 138.466,353.636 138.5,346.5C 140.515,345.076 142.848,344.41 145.5,344.5C 145.323,352.501 148.99,355.334 156.5,353C 157.726,351.365 159.059,349.865 160.5,348.5C 162.419,349.612 164.086,350.946 165.5,352.5 Z"/></g>
<g><path style="opacity:1" fill="#6f3125" d="M 85.5,341.5 C 86.2937,345.358 86.9603,349.358 87.5,353.5C 85.8333,352.167 84.1667,350.833 82.5,349.5C 81.0267,348.928 79.6934,348.095 78.5,347C 80.7695,346.242 82.9361,346.409 85,347.5C 85.4955,345.527 85.6621,343.527 85.5,341.5 Z"/></g>
<g><path style="opacity:1" fill="#a98353" d="M 264.5,349.5 C 262.809,353.008 260.476,356.175 257.5,359C 246.726,363.779 239.393,360.613 235.5,349.5C 237.089,347.694 239.089,346.361 241.5,345.5C 242.148,350.17 244.648,353.17 249,354.5C 254.1,353.73 256.767,350.73 257,345.5C 259.769,346.466 262.269,347.799 264.5,349.5 Z"/></g>
<g><path style="opacity:1" fill="#c6c6c6" d="M 89.5,346.5 C 92.7131,346.19 95.7131,346.523 98.5,347.5C 97.2067,348.158 95.7067,348.492 94,348.5C 92.0145,348.431 90.5145,347.765 89.5,346.5 Z"/></g>
<g><path style="opacity:1" fill="#fbfbfb" d="M 138.5,346.5 C 138.466,353.636 141.799,358.469 148.5,361C 156.358,362.405 162.024,359.571 165.5,352.5C 169.771,355.101 173.437,358.434 176.5,362.5C 167.232,373.091 155.565,377.258 141.5,375C 131.568,372.878 124.568,367.211 120.5,358C 125.313,352.42 131.313,348.587 138.5,346.5 Z"/></g>
<g><path style="opacity:1" fill="#a0a0a0" d="M 298.5,345.5 C 301.167,345.5 303.833,345.5 306.5,345.5C 306.5,346.833 306.5,348.167 306.5,349.5C 303.833,349.5 301.167,349.5 298.5,349.5C 298.5,348.167 298.5,346.833 298.5,345.5 Z"/></g>
<g><path style="opacity:1" fill="#e9af8a" d="M 113.5,341.5 C 134.644,341.057 134.644,342.224 113.5,345C 114.5,346.667 115.833,348 117.5,349C 114.123,349.369 110.79,349.369 107.5,349C 120.687,376.285 141.354,384.285 169.5,373C 172.681,370.908 175.681,368.575 178.5,366C 179.448,365.517 180.448,365.351 181.5,365.5C 182.108,374.064 178.108,378.898 169.5,380C 150.762,382.296 132.095,381.963 113.5,379C 110.789,377.739 108.622,375.906 107,373.5C 105.517,364.213 105.184,354.879 106,345.5C 108.113,343.267 110.613,341.933 113.5,341.5 Z"/></g>
<g><path style="opacity:1" fill="#f3b690" d="M 209.5,356.5 C 208.698,357.952 208.198,359.618 208,361.5C 207.333,368.5 207.333,375.5 208,382.5C 208.915,383.328 209.581,384.328 210,385.5C 210.183,382.635 210.683,379.969 211.5,377.5C 212.203,379.716 213.536,381.549 215.5,383C 218.674,384.725 222.007,386.058 225.5,387C 243.823,388.908 262.156,388.908 280.5,387C 286.559,386.722 291.392,384.222 295,379.5C 294.788,385.649 293.622,391.649 291.5,397.5C 229.5,397.5 167.5,397.5 105.5,397.5C 103.577,391.627 102.411,385.627 102,379.5C 104.559,382.531 107.726,384.698 111.5,386C 128.078,388.379 144.745,389.045 161.5,388C 167.674,387.432 173.674,386.099 179.5,384C 182.333,382.5 184.5,380.333 186,377.5C 187.086,368.87 187.753,360.203 188,351.5C 191.016,349.495 194.349,348.495 198,348.5C 201.886,348.931 205.72,349.597 209.5,350.5C 209.5,352.5 209.5,354.5 209.5,356.5 Z"/></g>
<g><path style="opacity:1" fill="#faf9f9" d="M 235.5,349.5 C 239.393,360.613 246.726,363.779 257.5,359C 260.476,356.175 262.809,353.008 264.5,349.5C 268.229,351.451 271.729,353.784 275,356.5C 275.073,361.136 273.239,364.969 269.5,368C 255.984,377.219 241.984,377.885 227.5,370C 224.601,367.723 221.934,365.223 219.5,362.5C 224.267,357.392 229.601,353.059 235.5,349.5 Z"/></g>
<g><path style="opacity:1" fill="#cd7b60" d="M 82.5,349.5 C 84.1667,350.833 85.8333,352.167 87.5,353.5C 87.5,353.833 87.5,354.167 87.5,354.5C 83.465,361.114 82.6316,368.114 85,375.5C 85.6543,376.696 86.1543,376.696 86.5,375.5C 85.0672,370.723 85.4005,366.057 87.5,361.5C 87.9569,360.702 88.6236,360.369 89.5,360.5C 90.3298,362.824 91.6631,364.824 93.5,366.5C 94.6721,375.88 96.0054,385.214 97.5,394.5C 95.8008,394.66 94.1341,394.494 92.5,394C 82.5028,383.501 78.0028,371.001 79,356.5C 79.1328,353.596 80.2995,351.262 82.5,349.5 Z"/></g>
<g><path style="opacity:1" fill="#ce7c61" d="M 314.5,349.5 C 315.504,350.683 316.338,352.016 317,353.5C 319.281,367.713 315.948,380.38 307,391.5C 304.772,394.078 301.939,395.411 298.5,395.5C 299.595,390.195 300.762,384.862 302,379.5C 301.552,372.277 303.052,365.61 306.5,359.5C 308.173,360.343 309.34,361.676 310,363.5C 310.772,367.89 310.606,372.223 309.5,376.5C 309.846,377.696 310.346,377.696 311,376.5C 313.28,369.306 312.78,362.306 309.5,355.5C 310.434,352.898 312.101,350.898 314.5,349.5 Z"/></g>
<g><path style="opacity:1" fill="#353535" d="M 182.5,349.5 C 183.167,355.833 183.833,362.167 184.5,368.5C 184.795,370.735 184.461,372.735 183.5,374.5C 183.768,372.901 183.434,371.568 182.5,370.5C 182.5,363.5 182.5,356.5 182.5,349.5 Z"/></g>
<g><path style="opacity:1" fill="#757575" d="M 202.5,345.5 C 206.054,345.15 209.388,345.816 212.5,347.5C 213.417,346.873 214.417,346.539 215.5,346.5C 214.86,351.087 214.527,355.753 214.5,360.5C 212.358,375.696 219.025,383.029 234.5,382.5C 232.052,383.473 229.385,383.806 226.5,383.5C 222.144,383.073 218.311,381.406 215,378.5C 213.122,368.629 211.955,358.629 211.5,348.5C 208.418,347.365 205.418,346.365 202.5,345.5 Z"/></g>
<g><path style="opacity:1" fill="#742e24" d="M 87.5,354.5 C 88.2852,356.374 88.9518,358.374 89.5,360.5C 88.6236,360.369 87.9569,360.702 87.5,361.5C 85.4005,366.057 85.0672,370.723 86.5,375.5C 86.1543,376.696 85.6543,376.696 85,375.5C 82.6316,368.114 83.465,361.114 87.5,354.5 Z"/></g>
<g><path style="opacity:1" fill="#793327" d="M 314.5,349.5 C 312.101,350.898 310.434,352.898 309.5,355.5C 312.78,362.306 313.28,369.306 311,376.5C 310.346,377.696 309.846,377.696 309.5,376.5C 310.606,372.223 310.772,367.89 310,363.5C 309.34,361.676 308.173,360.343 306.5,359.5C 307.046,355.645 308.046,351.978 309.5,348.5C 311.228,347.621 313.061,346.954 315,346.5C 317.998,347.427 317.831,348.427 314.5,349.5 Z"/></g>
<g><path style="opacity:1" fill="#732d23" d="M 209.5,356.5 C 209.176,363.644 209.842,370.644 211.5,377.5C 210.683,379.969 210.183,382.635 210,385.5C 209.581,384.328 208.915,383.328 208,382.5C 207.333,375.5 207.333,368.5 208,361.5C 208.198,359.618 208.698,357.952 209.5,356.5 Z"/></g>
<g><path style="opacity:1" fill="#797979" d="M 294.5,344.5 C 295.164,346.978 295.497,349.645 295.5,352.5C 295.047,359.837 294.547,367.17 294,374.5C 292.497,379.172 289.33,381.839 284.5,382.5C 282.901,382.768 281.568,382.434 280.5,381.5C 285.402,380.804 289.235,378.471 292,374.5C 293.391,364.9 293.891,355.233 293.5,345.5C 294.167,345.5 294.5,345.167 294.5,344.5 Z"/></g>
<g><path style="opacity:1" fill="#666666" d="M 103.5,366.5 C 103.349,371.61 105.349,375.777 109.5,379C 129.98,384.158 150.646,384.825 171.5,381C 177.645,380.02 181.312,376.52 182.5,370.5C 183.434,371.568 183.768,372.901 183.5,374.5C 183.16,376.679 182.16,378.512 180.5,380C 176.716,381.947 172.716,383.28 168.5,384C 151.167,384.667 133.833,384.667 116.5,384C 107.031,383.036 102.364,377.869 102.5,368.5C 103.338,368.158 103.672,367.492 103.5,366.5 Z"/></g>
<g><path style="opacity:1" fill="#595959" d="M 280.5,381.5 C 281.568,382.434 282.901,382.768 284.5,382.5C 283.391,383.29 282.058,383.79 280.5,384C 270.017,384.863 259.517,385.363 249,385.5C 241.266,385.714 233.766,385.047 226.5,383.5C 229.385,383.806 232.052,383.473 234.5,382.5C 249.876,383.943 265.21,383.609 280.5,381.5 Z"/></g>
</svg>
